<svg xmlns="http://www.w3.org/2000/svg" viewBox="0 0 41.87 41.8">
  <title>Lock and key icon</title>
  <g>
    <path d="M4.77,19.52c0-2.52.1-5,0-7.54C4.57,8.13,6.86,3.8,12.62,3.34a19.63,19.63,0,0,1,4.53.16A7.71,7.71,0,0,1,24,11.21c.07,2.41,0,4.83,0,7.25v1.18h3.15c1.21,0,1.55.32,1.56,1.55q0,9.52,0,19.05c0,1.34-.26,1.56-1.6,1.56H1.65C.32,41.8,0,41.47,0,40.13V21.27c0-1.38.25-1.62,1.65-1.63l2.8,0A2.14,2.14,0,0,0,4.77,19.52Zm20.38,1.83H1.71V40.09H25.15Zm-7-1.75V12.3c0-2-.8-3.06-2.81-3.31a8.6,8.6,0,0,0-2.77.14,2.46,2.46,0,0,0-2,2.66q0,3.53,0,7c0,.25,0,.49.07.77Zm-9.29,0v-1.1c0-2.19,0-4.38,0-6.57a4.39,4.39,0,0,1,3.37-4.4,9.85,9.85,0,0,1,2.48-.3,4.89,4.89,0,0,1,5.13,5.36c-.13,2.06,0,4.13,0,6.19a3,3,0,0,0,.32.85,3,3,0,0,0,.29-.89q0-3.28,0-6.58a5.85,5.85,0,0,0-2-4.25c-.16-.15-.34-.29-.51-.43A4.51,4.51,0,0,1,21,11a12.64,12.64,0,0,1,.2,2.68c0,2,0,3.91,0,5.94l1.15-.06V11.82a6.56,6.56,0,0,0-5-6.6,13.82,13.82,0,0,0-4.11-.35c-4.32.26-6.89,3.07-6.89,7.39,0,2.09,0,4.19,0,6.28a3.58,3.58,0,0,0,.38,1.08,3.8,3.8,0,0,0,.35-1c0-2.29,0-4.58,0-6.87A6.33,6.33,0,0,1,11,6a3.25,3.25,0,0,1,.63-.17C9.18,7.32,8,9.09,7.81,11.64c-.07,1,0,2,0,3,0,1.64,0,3.27,0,4.95ZM27,40.07V21.34c-.6-.14-.89-.05-.89.62q0,8.74,0,17.49C26.08,40.1,26.33,40.25,27,40.07Z" style="fill: #1f6300"/>
    <path d="M35.93,24.17h3.6v4.67H36v.26h3.53v8.17H31.11V36.2c0-6.06,0-12.12,0-18.18a1.36,1.36,0,0,0-.93-1.5,8.81,8.81,0,0,1-4.83-10A8.58,8.58,0,0,1,34,0c5.61.21,9.48,6.45,7.29,11.77a9.16,9.16,0,0,1-4.66,4.94c-.27.13-.63.45-.63.69C35.91,19.63,35.93,21.84,35.93,24.17ZM34.8,16c3.39-1.07,5.45-3.2,5.89-6.74C41.24,4.66,37.22.48,32.85,1a7.44,7.44,0,0,0-6.4,6.3c-.42,3.85,1.48,7.09,4.93,8.23a1.1,1.1,0,0,1,.9,1.27c0,6,0,12,0,18v1.09h6.21V30.15H34.84v-2.7H38.4V25.09H34.8Z" style="fill: #1f6300"/>
    <path d="M16.84,36.8H11.92c.3-1.86.57-3.66.89-5.45A2.44,2.44,0,0,0,12.36,29a2.48,2.48,0,0,1,.53-3.45,2.36,2.36,0,0,1,3.16.19,2.45,2.45,0,0,1,.15,3.47,1.63,1.63,0,0,0-.42,1.63C16.16,32.77,16.48,34.74,16.84,36.8Z" style="fill: #1f6300"/>
    <path d="M31.47,5.64a2.05,2.05,0,1,1,4.1,0,2,2,0,0,1-2.12,2.11A1.84,1.84,0,0,1,31.47,5.64ZM34.39,5a1.11,1.11,0,0,0-1.53-.17,1.11,1.11,0,1,0,1.53,1.58A1.1,1.1,0,0,0,34.39,5Z" style="fill: #1f6300"/>
  </g>
</svg>
